<mxfile host="app.diagrams.net" agent="Mozilla/5.0 (Windows NT 10.0; Win64; x64) AppleWebKit/537.36 (KHTML, like Gecko) Chrome/129.0.0.0 Safari/537.36" version="24.8.0">
  <diagram name="Page-1" id="-H_mtQnk-PTXWXPvYvuk">
    <mxGraphModel dx="1722" dy="1010" grid="1" gridSize="10" guides="1" tooltips="1" connect="1" arrows="0" fold="1" page="1" pageScale="1" pageWidth="4681" pageHeight="3300" math="0" shadow="0">
      <root>
        <mxCell id="0" />
        <mxCell id="1" parent="0" />
        <mxCell id="1Zy2XbYylVy56BqZgApC-1" value="" style="rounded=0;whiteSpace=wrap;html=1;align=left;" parent="1" vertex="1">
          <mxGeometry x="160" y="150" width="1850" height="760" as="geometry" />
        </mxCell>
        <mxCell id="1Zy2XbYylVy56BqZgApC-2" value="sprint2 task 5 -&amp;nbsp;sharding + replication + redis + instans (добавил так же nginx + redis)" style="text;html=1;align=center;verticalAlign=middle;whiteSpace=wrap;rounded=0;" parent="1" vertex="1">
          <mxGeometry x="215" y="190" width="150" height="30" as="geometry" />
        </mxCell>
        <mxCell id="1Zy2XbYylVy56BqZgApC-40" style="edgeStyle=orthogonalEdgeStyle;rounded=0;orthogonalLoop=1;jettySize=auto;html=1;exitX=0.5;exitY=1;exitDx=0;exitDy=0;entryX=0.5;entryY=0;entryDx=0;entryDy=0;" parent="1" source="1Zy2XbYylVy56BqZgApC-48" target="1Zy2XbYylVy56BqZgApC-47" edge="1">
          <mxGeometry relative="1" as="geometry">
            <mxPoint x="830" y="532.5" as="sourcePoint" />
          </mxGeometry>
        </mxCell>
        <mxCell id="1Zy2XbYylVy56BqZgApC-41" style="edgeStyle=orthogonalEdgeStyle;rounded=0;orthogonalLoop=1;jettySize=auto;html=1;entryX=0;entryY=0.5;entryDx=0;entryDy=0;" parent="1" source="1Zy2XbYylVy56BqZgApC-163" target="1Zy2XbYylVy56BqZgApC-46" edge="1">
          <mxGeometry relative="1" as="geometry" />
        </mxCell>
        <mxCell id="1Zy2XbYylVy56BqZgApC-42" value="User" style="shape=umlActor;verticalLabelPosition=bottom;verticalAlign=top;html=1;outlineConnect=0;" parent="1" vertex="1">
          <mxGeometry x="260" y="361" width="30" height="60" as="geometry" />
        </mxCell>
        <mxCell id="1Zy2XbYylVy56BqZgApC-43" style="edgeStyle=orthogonalEdgeStyle;rounded=0;orthogonalLoop=1;jettySize=auto;html=1;entryX=0;entryY=0.5;entryDx=0;entryDy=0;exitX=0.25;exitY=1;exitDx=0;exitDy=0;" parent="1" source="1Zy2XbYylVy56BqZgApC-46" target="1Zy2XbYylVy56BqZgApC-47" edge="1">
          <mxGeometry relative="1" as="geometry" />
        </mxCell>
        <mxCell id="1Zy2XbYylVy56BqZgApC-44" style="edgeStyle=orthogonalEdgeStyle;rounded=0;orthogonalLoop=1;jettySize=auto;html=1;exitX=1;exitY=0.5;exitDx=0;exitDy=0;entryX=0;entryY=0.5;entryDx=0;entryDy=0;" parent="1" source="1Zy2XbYylVy56BqZgApC-46" target="1Zy2XbYylVy56BqZgApC-53" edge="1">
          <mxGeometry relative="1" as="geometry">
            <mxPoint x="830" y="715" as="targetPoint" />
          </mxGeometry>
        </mxCell>
        <mxCell id="1Zy2XbYylVy56BqZgApC-45" style="edgeStyle=orthogonalEdgeStyle;rounded=0;orthogonalLoop=1;jettySize=auto;html=1;exitX=1;exitY=0.5;exitDx=0;exitDy=0;entryX=0;entryY=0.5;entryDx=0;entryDy=0;" parent="1" source="1Zy2XbYylVy56BqZgApC-46" target="1Zy2XbYylVy56BqZgApC-48" edge="1">
          <mxGeometry relative="1" as="geometry" />
        </mxCell>
        <mxCell id="1Zy2XbYylVy56BqZgApC-46" value="APISIX&lt;div&gt;Gateway&lt;/div&gt;" style="rounded=1;whiteSpace=wrap;html=1;arcSize=16;" parent="1" vertex="1">
          <mxGeometry x="530" y="361" width="120" height="60" as="geometry" />
        </mxCell>
        <mxCell id="1Zy2XbYylVy56BqZgApC-47" value="Consul" style="rounded=1;whiteSpace=wrap;html=1;" parent="1" vertex="1">
          <mxGeometry x="579" y="560" width="120" height="60" as="geometry" />
        </mxCell>
        <mxCell id="1Zy2XbYylVy56BqZgApC-48" value="" style="rounded=0;whiteSpace=wrap;html=1;" parent="1" vertex="1">
          <mxGeometry x="830" y="274" width="250" height="120" as="geometry" />
        </mxCell>
        <mxCell id="1Zy2XbYylVy56BqZgApC-49" value="Instance1" style="text;html=1;align=center;verticalAlign=middle;whiteSpace=wrap;rounded=0;" parent="1" vertex="1">
          <mxGeometry x="850" y="294" width="60" height="30" as="geometry" />
        </mxCell>
        <mxCell id="1Zy2XbYylVy56BqZgApC-50" style="edgeStyle=orthogonalEdgeStyle;rounded=0;orthogonalLoop=1;jettySize=auto;html=1;exitX=1;exitY=0.5;exitDx=0;exitDy=0;entryX=0;entryY=0.5;entryDx=0;entryDy=0;" parent="1" source="1Zy2XbYylVy56BqZgApC-51" target="1Zy2XbYylVy56BqZgApC-168" edge="1">
          <mxGeometry relative="1" as="geometry" />
        </mxCell>
        <mxCell id="1Zy2XbYylVy56BqZgApC-51" value="pymongo-api" style="rounded=1;whiteSpace=wrap;html=1;" parent="1" vertex="1">
          <mxGeometry x="940" y="304" width="120" height="60" as="geometry" />
        </mxCell>
        <mxCell id="1Zy2XbYylVy56BqZgApC-52" style="edgeStyle=orthogonalEdgeStyle;rounded=0;orthogonalLoop=1;jettySize=auto;html=1;exitX=0.5;exitY=0;exitDx=0;exitDy=0;entryX=0.5;entryY=0;entryDx=0;entryDy=0;" parent="1" source="1Zy2XbYylVy56BqZgApC-53" target="1Zy2XbYylVy56BqZgApC-47" edge="1">
          <mxGeometry relative="1" as="geometry">
            <Array as="points">
              <mxPoint x="955" y="480" />
              <mxPoint x="639" y="480" />
            </Array>
          </mxGeometry>
        </mxCell>
        <mxCell id="1Zy2XbYylVy56BqZgApC-53" value="" style="rounded=0;whiteSpace=wrap;html=1;" parent="1" vertex="1">
          <mxGeometry x="830" y="581" width="250" height="120" as="geometry" />
        </mxCell>
        <mxCell id="1Zy2XbYylVy56BqZgApC-54" value="Instance2" style="text;html=1;align=center;verticalAlign=middle;whiteSpace=wrap;rounded=0;" parent="1" vertex="1">
          <mxGeometry x="850" y="601" width="60" height="30" as="geometry" />
        </mxCell>
        <mxCell id="1Zy2XbYylVy56BqZgApC-55" style="edgeStyle=orthogonalEdgeStyle;rounded=0;orthogonalLoop=1;jettySize=auto;html=1;exitX=1;exitY=0.5;exitDx=0;exitDy=0;entryX=0;entryY=0.5;entryDx=0;entryDy=0;" parent="1" source="1Zy2XbYylVy56BqZgApC-168" target="1Zy2XbYylVy56BqZgApC-73" edge="1">
          <mxGeometry relative="1" as="geometry" />
        </mxCell>
        <mxCell id="1Zy2XbYylVy56BqZgApC-56" style="edgeStyle=orthogonalEdgeStyle;rounded=0;orthogonalLoop=1;jettySize=auto;html=1;exitX=1;exitY=0.5;exitDx=0;exitDy=0;entryX=0;entryY=0;entryDx=0;entryDy=52.5;entryPerimeter=0;" parent="1" source="1Zy2XbYylVy56BqZgApC-57" target="1Zy2XbYylVy56BqZgApC-165" edge="1">
          <mxGeometry relative="1" as="geometry" />
        </mxCell>
        <mxCell id="1Zy2XbYylVy56BqZgApC-57" value="pymongo-api" style="rounded=1;whiteSpace=wrap;html=1;" parent="1" vertex="1">
          <mxGeometry x="940" y="611" width="120" height="60" as="geometry" />
        </mxCell>
        <mxCell id="1Zy2XbYylVy56BqZgApC-58" value="Redis" style="shape=cylinder3;whiteSpace=wrap;html=1;boundedLbl=1;backgroundOutline=1;size=15;" parent="1" vertex="1">
          <mxGeometry x="1180" y="250" width="60" height="80" as="geometry" />
        </mxCell>
        <mxCell id="1Zy2XbYylVy56BqZgApC-72" style="edgeStyle=orthogonalEdgeStyle;rounded=0;orthogonalLoop=1;jettySize=auto;html=1;entryX=0;entryY=0.5;entryDx=0;entryDy=0;" parent="1" source="1Zy2XbYylVy56BqZgApC-73" target="1Zy2XbYylVy56BqZgApC-177" edge="1">
          <mxGeometry relative="1" as="geometry">
            <mxPoint x="1592" y="810" as="targetPoint" />
          </mxGeometry>
        </mxCell>
        <mxCell id="1Zy2XbYylVy56BqZgApC-73" value="mongo router&amp;nbsp;" style="rounded=0;whiteSpace=wrap;html=1;" parent="1" vertex="1">
          <mxGeometry x="1402" y="404" width="115" height="190" as="geometry" />
        </mxCell>
        <mxCell id="1Zy2XbYylVy56BqZgApC-75" style="edgeStyle=orthogonalEdgeStyle;rounded=0;orthogonalLoop=1;jettySize=auto;html=1;entryX=0;entryY=0.5;entryDx=0;entryDy=0;" parent="1" source="1Zy2XbYylVy56BqZgApC-73" target="1Zy2XbYylVy56BqZgApC-170" edge="1">
          <mxGeometry relative="1" as="geometry">
            <mxPoint x="1606.7400000000002" y="557.8999999999996" as="targetPoint" />
          </mxGeometry>
        </mxCell>
        <mxCell id="1Zy2XbYylVy56BqZgApC-76" style="edgeStyle=orthogonalEdgeStyle;rounded=0;orthogonalLoop=1;jettySize=auto;html=1;exitX=1;exitY=0.5;exitDx=0;exitDy=0;" parent="1" source="1Zy2XbYylVy56BqZgApC-51" target="1Zy2XbYylVy56BqZgApC-58" edge="1">
          <mxGeometry relative="1" as="geometry" />
        </mxCell>
        <mxCell id="1Zy2XbYylVy56BqZgApC-164" value="" style="edgeStyle=orthogonalEdgeStyle;rounded=0;orthogonalLoop=1;jettySize=auto;html=1;entryX=0;entryY=0.5;entryDx=0;entryDy=0;" parent="1" source="1Zy2XbYylVy56BqZgApC-42" target="1Zy2XbYylVy56BqZgApC-163" edge="1">
          <mxGeometry relative="1" as="geometry">
            <mxPoint x="340" y="391" as="sourcePoint" />
            <mxPoint x="530" y="391" as="targetPoint" />
          </mxGeometry>
        </mxCell>
        <mxCell id="1Zy2XbYylVy56BqZgApC-163" value="&lt;div&gt;Nginx (&lt;span style=&quot;background-color: initial;&quot;&gt;Сайт&lt;/span&gt;&lt;/div&gt;&lt;div&gt;&lt;span style=&quot;background-color: initial;&quot;&gt;React&lt;/span&gt;)&lt;/div&gt;" style="rounded=1;whiteSpace=wrap;html=1;arcSize=16;" parent="1" vertex="1">
          <mxGeometry x="365" y="361" width="120" height="60" as="geometry" />
        </mxCell>
        <mxCell id="1Zy2XbYylVy56BqZgApC-165" value="Redis" style="shape=cylinder3;whiteSpace=wrap;html=1;boundedLbl=1;backgroundOutline=1;size=15;" parent="1" vertex="1">
          <mxGeometry x="1150" y="720" width="60" height="80" as="geometry" />
        </mxCell>
        <mxCell id="1Zy2XbYylVy56BqZgApC-167" style="edgeStyle=orthogonalEdgeStyle;rounded=0;orthogonalLoop=1;jettySize=auto;html=1;exitX=0.5;exitY=0;exitDx=0;exitDy=0;entryX=0.5;entryY=1;entryDx=0;entryDy=0;" parent="1" source="1Zy2XbYylVy56BqZgApC-166" target="1Zy2XbYylVy56BqZgApC-168" edge="1">
          <mxGeometry relative="1" as="geometry" />
        </mxCell>
        <mxCell id="1Zy2XbYylVy56BqZgApC-166" value="configSrv&lt;div&gt;(&lt;font style=&quot;font-size: 12px;&quot;&gt;&lt;span style=&quot;text-wrap: nowrap; background-color: rgb(255, 255, 255);&quot;&gt;данные&lt;br&gt;&lt;/span&gt;&lt;span style=&quot;text-wrap: nowrap; background-color: initial;&quot;&gt;&amp;nbsp;о кластере&lt;/span&gt;&lt;/font&gt;)&lt;/div&gt;" style="rounded=0;whiteSpace=wrap;html=1;" parent="1" vertex="1">
          <mxGeometry x="1229" y="611" width="120" height="60" as="geometry" />
        </mxCell>
        <mxCell id="1Zy2XbYylVy56BqZgApC-169" value="" style="edgeStyle=orthogonalEdgeStyle;rounded=0;orthogonalLoop=1;jettySize=auto;html=1;exitX=1;exitY=0.5;exitDx=0;exitDy=0;entryX=0;entryY=0.5;entryDx=0;entryDy=0;" parent="1" source="1Zy2XbYylVy56BqZgApC-57" target="1Zy2XbYylVy56BqZgApC-168" edge="1">
          <mxGeometry relative="1" as="geometry">
            <mxPoint x="1060" y="641" as="sourcePoint" />
            <mxPoint x="1402" y="499" as="targetPoint" />
          </mxGeometry>
        </mxCell>
        <mxCell id="1Zy2XbYylVy56BqZgApC-168" value="mongo&amp;nbsp;&lt;div&gt;&lt;span style=&quot;white-space-collapse: preserve;&quot; data-src-align=&quot;0:13&quot; class=&quot;EzKURWReUAB5oZgtQNkl&quot;&gt;driver&lt;/span&gt;&lt;/div&gt;" style="rounded=0;whiteSpace=wrap;html=1;" parent="1" vertex="1">
          <mxGeometry x="1230" y="449" width="115" height="100" as="geometry" />
        </mxCell>
        <mxCell id="1Zy2XbYylVy56BqZgApC-170" value="" style="whiteSpace=wrap;html=1;aspect=fixed;" parent="1" vertex="1">
          <mxGeometry x="1640" y="304" width="220" height="220" as="geometry" />
        </mxCell>
        <mxCell id="1Zy2XbYylVy56BqZgApC-171" value="MongoDB&lt;br&gt;sh1 primary" style="shape=cylinder3;whiteSpace=wrap;html=1;boundedLbl=1;backgroundOutline=1;size=15;" parent="1" vertex="1">
          <mxGeometry x="1670" y="364" width="60" height="80" as="geometry" />
        </mxCell>
        <mxCell id="1Zy2XbYylVy56BqZgApC-172" style="edgeStyle=orthogonalEdgeStyle;rounded=0;orthogonalLoop=1;jettySize=auto;html=1;exitX=0;exitY=0.5;exitDx=0;exitDy=0;exitPerimeter=0;" parent="1" source="1Zy2XbYylVy56BqZgApC-173" target="1Zy2XbYylVy56BqZgApC-171" edge="1">
          <mxGeometry relative="1" as="geometry" />
        </mxCell>
        <mxCell id="1Zy2XbYylVy56BqZgApC-173" value="MongoDB&lt;div&gt;sh1&lt;br&gt;secondary&amp;nbsp;&lt;/div&gt;" style="shape=cylinder3;whiteSpace=wrap;html=1;boundedLbl=1;backgroundOutline=1;size=15;" parent="1" vertex="1">
          <mxGeometry x="1760" y="314" width="60" height="80" as="geometry" />
        </mxCell>
        <mxCell id="1Zy2XbYylVy56BqZgApC-174" style="edgeStyle=orthogonalEdgeStyle;rounded=0;orthogonalLoop=1;jettySize=auto;html=1;exitX=0;exitY=0.5;exitDx=0;exitDy=0;exitPerimeter=0;" parent="1" source="1Zy2XbYylVy56BqZgApC-175" target="1Zy2XbYylVy56BqZgApC-171" edge="1">
          <mxGeometry relative="1" as="geometry" />
        </mxCell>
        <mxCell id="1Zy2XbYylVy56BqZgApC-175" value="MongoDB&lt;div&gt;sh1&lt;br&gt;secondary&amp;nbsp;&lt;/div&gt;" style="shape=cylinder3;whiteSpace=wrap;html=1;boundedLbl=1;backgroundOutline=1;size=15;" parent="1" vertex="1">
          <mxGeometry x="1760" y="424" width="60" height="80" as="geometry" />
        </mxCell>
        <mxCell id="1Zy2XbYylVy56BqZgApC-176" value="Shard1" style="text;html=1;align=center;verticalAlign=middle;whiteSpace=wrap;rounded=0;" parent="1" vertex="1">
          <mxGeometry x="1650" y="314" width="60" height="30" as="geometry" />
        </mxCell>
        <mxCell id="1Zy2XbYylVy56BqZgApC-177" value="" style="whiteSpace=wrap;html=1;aspect=fixed;" parent="1" vertex="1">
          <mxGeometry x="1640" y="551" width="220" height="220" as="geometry" />
        </mxCell>
        <mxCell id="1Zy2XbYylVy56BqZgApC-178" value="MongoDB&lt;div&gt;sh2&lt;br&gt;primary&lt;/div&gt;" style="shape=cylinder3;whiteSpace=wrap;html=1;boundedLbl=1;backgroundOutline=1;size=15;" parent="1" vertex="1">
          <mxGeometry x="1670" y="611" width="60" height="80" as="geometry" />
        </mxCell>
        <mxCell id="1Zy2XbYylVy56BqZgApC-179" style="edgeStyle=orthogonalEdgeStyle;rounded=0;orthogonalLoop=1;jettySize=auto;html=1;exitX=0;exitY=0.5;exitDx=0;exitDy=0;exitPerimeter=0;" parent="1" source="1Zy2XbYylVy56BqZgApC-181" target="1Zy2XbYylVy56BqZgApC-178" edge="1">
          <mxGeometry relative="1" as="geometry" />
        </mxCell>
        <mxCell id="1Zy2XbYylVy56BqZgApC-180" style="edgeStyle=orthogonalEdgeStyle;rounded=0;orthogonalLoop=1;jettySize=auto;html=1;exitX=0.5;exitY=1;exitDx=0;exitDy=0;exitPerimeter=0;startArrow=classic;startFill=1;" parent="1" source="1Zy2XbYylVy56BqZgApC-181" target="1Zy2XbYylVy56BqZgApC-182" edge="1">
          <mxGeometry relative="1" as="geometry" />
        </mxCell>
        <mxCell id="1Zy2XbYylVy56BqZgApC-181" value="MongoDB&lt;div&gt;sh2&lt;br&gt;secondary&amp;nbsp;&lt;/div&gt;" style="shape=cylinder3;whiteSpace=wrap;html=1;boundedLbl=1;backgroundOutline=1;size=15;" parent="1" vertex="1">
          <mxGeometry x="1760" y="561" width="60" height="80" as="geometry" />
        </mxCell>
        <mxCell id="1Zy2XbYylVy56BqZgApC-182" value="MongoDB&lt;div&gt;sh2&lt;br&gt;secondary&amp;nbsp;&lt;/div&gt;" style="shape=cylinder3;whiteSpace=wrap;html=1;boundedLbl=1;backgroundOutline=1;size=15;" parent="1" vertex="1">
          <mxGeometry x="1760" y="671" width="60" height="80" as="geometry" />
        </mxCell>
        <mxCell id="1Zy2XbYylVy56BqZgApC-183" value="Shard2" style="text;html=1;align=center;verticalAlign=middle;whiteSpace=wrap;rounded=0;" parent="1" vertex="1">
          <mxGeometry x="1650" y="561" width="60" height="30" as="geometry" />
        </mxCell>
        <mxCell id="1Zy2XbYylVy56BqZgApC-184" style="edgeStyle=orthogonalEdgeStyle;rounded=0;orthogonalLoop=1;jettySize=auto;html=1;exitX=0.5;exitY=0;exitDx=0;exitDy=0;exitPerimeter=0;entryX=0.5;entryY=1;entryDx=0;entryDy=0;entryPerimeter=0;startArrow=classic;startFill=1;" parent="1" source="1Zy2XbYylVy56BqZgApC-175" target="1Zy2XbYylVy56BqZgApC-173" edge="1">
          <mxGeometry relative="1" as="geometry" />
        </mxCell>
        <mxCell id="1Zy2XbYylVy56BqZgApC-185" style="edgeStyle=orthogonalEdgeStyle;rounded=0;orthogonalLoop=1;jettySize=auto;html=1;exitX=0;exitY=0.5;exitDx=0;exitDy=0;exitPerimeter=0;entryX=1;entryY=0.5;entryDx=0;entryDy=0;entryPerimeter=0;" parent="1" source="1Zy2XbYylVy56BqZgApC-182" target="1Zy2XbYylVy56BqZgApC-178" edge="1">
          <mxGeometry relative="1" as="geometry" />
        </mxCell>
      </root>
    </mxGraphModel>
  </diagram>
</mxfile>
